# xmcd CD database file
#
# Track frame offsets:
#	150
#	16387
#	31814
#	44056
#	59764
#	78877
#	93548
#	105771
#	117352
#	129646
#	153461
#	165397
#
# Disc length: 2487 seconds
#
# Revision: 0
# Processed by: cddbd v1.5.1PL0 Copyright (c) Steve Scherf et al.
# Submitted via: CDex 1.51
#
DISCID=9309b50c
DTITLE=Sylvie Martel - Spécialement pour vous
DYEAR=1900
DGENRE=Country
TTITLE0=Chanson de l'Ile-Aux-Coudre
TTITLE1=Fleur de papier
TTITLE2=Plus je t'embrasse
TTITLE3=J'ai du bon feu
TTITLE4=Amapola
TTITLE5=On a tous besoin d'un grand amour
TTITLE6=Edelweiss
TTITLE7=Le folklore américain
TTITLE8=Ces mots stupides
TTITLE9=Valse Medley
TTITLE10=Coeur de maman
TTITLE11=Petit voilier
EXTD=
EXTT0=
EXTT1=
EXTT2=
EXTT3=
EXTT4=
EXTT5=
EXTT6=
EXTT7=
EXTT8=
EXTT9=
EXTT10=
EXTT11=
PLAYORDER=
